<<<<<<< HEAD
<mxfile host="65bd71144e" modified="2021-02-05T13:43:27.745Z" agent="5.0 (Windows NT 10.0; Win64; x64) AppleWebKit/537.36 (KHTML, like Gecko) Code/1.52.1 Chrome/83.0.4103.122 Electron/9.3.5 Safari/537.36" etag="XB8qntZ9QWKAp9QKzNZD" version="13.10.0" type="embed" pages="3">
    <diagram id="6a731a19-8d31-9384-78a2-239565b7b9f0" name="general pipeline workflow">
        <mxGraphModel dx="596" dy="358" grid="1" gridSize="10" guides="1" tooltips="1" connect="1" arrows="1" fold="1" page="1" pageScale="1" pageWidth="827" pageHeight="1169" background="#ffffff" math="0" shadow="0">
            <root>
                <mxCell id="0"/>
                <mxCell id="1" parent="0"/>
                <mxCell id="79vRmvG_V-RffF-TkCLB-97" value="" style="group" parent="1" vertex="1" connectable="0">
                    <mxGeometry x="270" y="210" width="490" height="600" as="geometry"/>
                </mxCell>
                <mxCell id="79vRmvG_V-RffF-TkCLB-93" value="" style="rounded=0;whiteSpace=wrap;html=1;fillColor=none;dashed=1;strokeWidth=2;strokeColor=#CC6600;" parent="79vRmvG_V-RffF-TkCLB-97" vertex="1">
                    <mxGeometry y="30" width="490" height="570" as="geometry"/>
                </mxCell>
                <mxCell id="79vRmvG_V-RffF-TkCLB-57" value="&lt;p style=&quot;margin-top: 0pt ; margin-bottom: 0pt ; margin-left: 0in ; direction: ltr ; unicode-bidi: embed ; word-break: normal&quot;&gt;&lt;span style=&quot;font-family: &amp;#34;courier new&amp;#34;&quot;&gt;&lt;font style=&quot;font-size: 11px&quot;&gt;Quality check raw data (&lt;b&gt;FASTQC&lt;/b&gt;)&lt;/font&gt;&lt;/span&gt;&lt;/p&gt;" style="rounded=1;whiteSpace=wrap;html=1;fillColor=#ffe6cc;strokeColor=#d79b00;" parent="79vRmvG_V-RffF-TkCLB-97" vertex="1">
                    <mxGeometry x="250" y="40" width="230" height="60" as="geometry"/>
                </mxCell>
                <mxCell id="79vRmvG_V-RffF-TkCLB-58" value="&lt;p style=&quot;margin-top: 0pt ; margin-bottom: 0pt ; margin-left: 0in ; direction: ltr ; unicode-bidi: embed ; word-break: normal&quot;&gt;&lt;font face=&quot;courier new&quot;&gt;&lt;span style=&quot;font-size: 11px&quot;&gt;Trim adapter sequences, primer sequences and low quality reads (&lt;b&gt;BBDuk&amp;nbsp;&lt;/b&gt;&amp;nbsp;or &lt;b&gt;Trimmomatic&lt;/b&gt;)&lt;/span&gt;&lt;/font&gt;&lt;/p&gt;" style="rounded=1;whiteSpace=wrap;html=1;fillColor=#ffe6cc;strokeColor=#d79b00;" parent="79vRmvG_V-RffF-TkCLB-97" vertex="1">
                    <mxGeometry x="10" y="120" width="230" height="60" as="geometry"/>
                </mxCell>
                <mxCell id="79vRmvG_V-RffF-TkCLB-59" value="&lt;p style=&quot;margin-top: 0pt ; margin-bottom: 0pt ; margin-left: 0in ; direction: ltr ; unicode-bidi: embed ; word-break: normal&quot;&gt;&lt;font face=&quot;courier new&quot;&gt;&lt;span style=&quot;font-size: 11px&quot;&gt;Quality checking trimmed data (&lt;b&gt;FASTQC&lt;/b&gt;)&lt;/span&gt;&lt;/font&gt;&lt;/p&gt;" style="rounded=1;whiteSpace=wrap;html=1;fillColor=#ffe6cc;strokeColor=#d79b00;" parent="79vRmvG_V-RffF-TkCLB-97" vertex="1">
                    <mxGeometry x="250" y="200" width="230" height="60" as="geometry"/>
                </mxCell>
                <mxCell id="79vRmvG_V-RffF-TkCLB-61" value="" style="endArrow=classic;html=1;exitX=0.5;exitY=1;exitDx=0;exitDy=0;" parent="79vRmvG_V-RffF-TkCLB-97" source="79vRmvG_V-RffF-TkCLB-56" target="79vRmvG_V-RffF-TkCLB-58" edge="1">
                    <mxGeometry width="50" height="50" relative="1" as="geometry">
                        <mxPoint x="135" y="-50" as="sourcePoint"/>
                        <mxPoint x="135" y="-30" as="targetPoint"/>
                    </mxGeometry>
                </mxCell>
                <mxCell id="79vRmvG_V-RffF-TkCLB-63" value="" style="endArrow=classic;html=1;exitX=0.5;exitY=1;exitDx=0;exitDy=0;entryX=1;entryY=0.5;entryDx=0;entryDy=0;dashed=1;" parent="79vRmvG_V-RffF-TkCLB-97" source="79vRmvG_V-RffF-TkCLB-57" target="79vRmvG_V-RffF-TkCLB-58" edge="1">
                    <mxGeometry width="50" height="50" relative="1" as="geometry">
                        <mxPoint x="135" y="30" as="sourcePoint"/>
                        <mxPoint x="260" y="79.52083333333326" as="targetPoint"/>
                        <Array as="points">
                            <mxPoint x="365" y="150"/>
                        </Array>
                    </mxGeometry>
                </mxCell>
                <mxCell id="79vRmvG_V-RffF-TkCLB-64" value="" style="endArrow=classic;html=1;entryX=0;entryY=0.5;entryDx=0;entryDy=0;exitX=0.5;exitY=1;exitDx=0;exitDy=0;dashed=1;" parent="79vRmvG_V-RffF-TkCLB-97" source="79vRmvG_V-RffF-TkCLB-56" target="79vRmvG_V-RffF-TkCLB-57" edge="1">
                    <mxGeometry relative="1" as="geometry">
                        <mxPoint x="120" y="20" as="sourcePoint"/>
                        <mxPoint x="330" y="230" as="targetPoint"/>
                        <Array as="points">
                            <mxPoint x="125" y="70"/>
                        </Array>
                    </mxGeometry>
                </mxCell>
                <mxCell id="79vRmvG_V-RffF-TkCLB-65" value="Optional" style="edgeLabel;resizable=0;html=1;align=center;verticalAlign=middle;" parent="79vRmvG_V-RffF-TkCLB-64" connectable="0" vertex="1">
                    <mxGeometry relative="1" as="geometry">
                        <mxPoint x="17" as="offset"/>
                    </mxGeometry>
                </mxCell>
                <mxCell id="79vRmvG_V-RffF-TkCLB-67" value="&lt;p style=&quot;margin-top: 0pt ; margin-bottom: 0pt ; margin-left: 0in ; direction: ltr ; unicode-bidi: embed ; word-break: normal&quot;&gt;&lt;font face=&quot;courier new&quot;&gt;&lt;span style=&quot;font-size: 11px&quot;&gt;Sequence alignment (&lt;b&gt;BWA MEM&lt;/b&gt;) and create flagstat report for alignment quality (&lt;b&gt;SAMTools&lt;/b&gt;)&lt;/span&gt;&lt;/font&gt;&lt;/p&gt;" style="rounded=1;whiteSpace=wrap;html=1;fillColor=#ffe6cc;strokeColor=#d79b00;" parent="79vRmvG_V-RffF-TkCLB-97" vertex="1">
                    <mxGeometry x="10" y="280" width="230" height="60" as="geometry"/>
                </mxCell>
                <mxCell id="79vRmvG_V-RffF-TkCLB-68" value="" style="endArrow=classic;html=1;exitX=0.5;exitY=1;exitDx=0;exitDy=0;" parent="79vRmvG_V-RffF-TkCLB-97" source="79vRmvG_V-RffF-TkCLB-58" target="79vRmvG_V-RffF-TkCLB-67" edge="1">
                    <mxGeometry width="50" height="50" relative="1" as="geometry">
                        <mxPoint x="135" y="30" as="sourcePoint"/>
                        <mxPoint x="135" y="130" as="targetPoint"/>
                    </mxGeometry>
                </mxCell>
                <mxCell id="79vRmvG_V-RffF-TkCLB-69" value="" style="endArrow=classic;html=1;exitX=0.5;exitY=1;exitDx=0;exitDy=0;entryX=0;entryY=0.5;entryDx=0;entryDy=0;dashed=1;" parent="79vRmvG_V-RffF-TkCLB-97" source="79vRmvG_V-RffF-TkCLB-58" target="79vRmvG_V-RffF-TkCLB-59" edge="1">
                    <mxGeometry relative="1" as="geometry">
                        <mxPoint x="125" y="180" as="sourcePoint"/>
                        <mxPoint x="250" y="230" as="targetPoint"/>
                        <Array as="points">
                            <mxPoint x="125" y="230"/>
                        </Array>
                    </mxGeometry>
                </mxCell>
                <mxCell id="79vRmvG_V-RffF-TkCLB-70" value="Optional" style="edgeLabel;resizable=0;html=1;align=center;verticalAlign=middle;" parent="79vRmvG_V-RffF-TkCLB-69" connectable="0" vertex="1">
                    <mxGeometry relative="1" as="geometry">
                        <mxPoint x="17" as="offset"/>
                    </mxGeometry>
                </mxCell>
                <mxCell id="79vRmvG_V-RffF-TkCLB-71" value="" style="endArrow=classic;html=1;exitX=0.5;exitY=1;exitDx=0;exitDy=0;entryX=1;entryY=0.5;entryDx=0;entryDy=0;dashed=1;" parent="79vRmvG_V-RffF-TkCLB-97" source="79vRmvG_V-RffF-TkCLB-59" target="79vRmvG_V-RffF-TkCLB-67" edge="1">
                    <mxGeometry width="50" height="50" relative="1" as="geometry">
                        <mxPoint x="365" y="260" as="sourcePoint"/>
                        <mxPoint x="270" y="330" as="targetPoint"/>
                        <Array as="points">
                            <mxPoint x="365" y="310"/>
                        </Array>
                    </mxGeometry>
                </mxCell>
                <mxCell id="79vRmvG_V-RffF-TkCLB-72" value="&lt;p style=&quot;margin-top: 0pt ; margin-bottom: 0pt ; margin-left: 0in ; direction: ltr ; unicode-bidi: embed ; word-break: normal&quot;&gt;&lt;font face=&quot;courier new&quot;&gt;&lt;span style=&quot;font-size: 11px&quot;&gt;Convert .sam file to its binary equivalent .bam file and quickcheck .bam file (&lt;b&gt;SAMTools&lt;/b&gt;)&lt;/span&gt;&lt;/font&gt;&lt;/p&gt;" style="rounded=1;whiteSpace=wrap;html=1;fillColor=#ffe6cc;strokeColor=#d79b00;" parent="79vRmvG_V-RffF-TkCLB-97" vertex="1">
                    <mxGeometry x="10" y="360" width="230" height="60" as="geometry"/>
                </mxCell>
                <mxCell id="79vRmvG_V-RffF-TkCLB-74" value="" style="edgeStyle=orthogonalEdgeStyle;rounded=0;orthogonalLoop=1;jettySize=auto;html=1;dashed=1;endArrow=none;endFill=0;" parent="79vRmvG_V-RffF-TkCLB-97" source="79vRmvG_V-RffF-TkCLB-67" target="79vRmvG_V-RffF-TkCLB-72" edge="1">
                    <mxGeometry relative="1" as="geometry"/>
                </mxCell>
                <mxCell id="79vRmvG_V-RffF-TkCLB-73" value="" style="endArrow=classic;html=1;entryX=0.5;entryY=0;entryDx=0;entryDy=0;" parent="79vRmvG_V-RffF-TkCLB-97" target="79vRmvG_V-RffF-TkCLB-72" edge="1">
                    <mxGeometry width="50" height="50" relative="1" as="geometry">
                        <mxPoint x="125" y="340" as="sourcePoint"/>
                        <mxPoint x="135" y="-30" as="targetPoint"/>
                    </mxGeometry>
                </mxCell>
                <mxCell id="79vRmvG_V-RffF-TkCLB-75" value="" style="endArrow=classic;html=1;exitX=0.5;exitY=1;exitDx=0;exitDy=0;entryX=0.5;entryY=0;entryDx=0;entryDy=0;" parent="79vRmvG_V-RffF-TkCLB-97" source="79vRmvG_V-RffF-TkCLB-72" target="79vRmvG_V-RffF-TkCLB-76" edge="1">
                    <mxGeometry width="50" height="50" relative="1" as="geometry">
                        <mxPoint x="126" y="420" as="sourcePoint"/>
                        <mxPoint x="125" y="445" as="targetPoint"/>
                    </mxGeometry>
                </mxCell>
                <mxCell id="79vRmvG_V-RffF-TkCLB-76" value="&lt;p style=&quot;margin-top: 0pt ; margin-bottom: 0pt ; margin-left: 0in ; direction: ltr ; unicode-bidi: embed ; word-break: normal&quot;&gt;&lt;font face=&quot;courier new&quot;&gt;&lt;span style=&quot;font-size: 11px&quot;&gt;Indexing and sorting reads in .bam file (&lt;b&gt;SAMBamba&lt;/b&gt;)&lt;/span&gt;&lt;/font&gt;&lt;/p&gt;" style="rounded=1;whiteSpace=wrap;html=1;fillColor=#ffe6cc;strokeColor=#d79b00;" parent="79vRmvG_V-RffF-TkCLB-97" vertex="1">
                    <mxGeometry x="10" y="444.5" width="230" height="60" as="geometry"/>
                </mxCell>
                <mxCell id="79vRmvG_V-RffF-TkCLB-77" value="&lt;p style=&quot;margin-top: 0pt ; margin-bottom: 0pt ; margin-left: 0in ; direction: ltr ; unicode-bidi: embed ; word-break: normal&quot;&gt;&lt;font face=&quot;courier new&quot;&gt;&lt;span style=&quot;font-size: 11px&quot;&gt;Transposon mapping (&lt;b&gt;transposonmapping_satay.py&lt;/b&gt;)&lt;/span&gt;&lt;/font&gt;&lt;/p&gt;" style="rounded=1;whiteSpace=wrap;html=1;fillColor=#ffe6cc;strokeColor=#d79b00;" parent="79vRmvG_V-RffF-TkCLB-97" vertex="1">
                    <mxGeometry x="10" y="530" width="230" height="60" as="geometry"/>
                </mxCell>
                <mxCell id="79vRmvG_V-RffF-TkCLB-78" value="" style="endArrow=classic;html=1;entryX=0.5;entryY=0;entryDx=0;entryDy=0;exitX=0.5;exitY=1;exitDx=0;exitDy=0;" parent="79vRmvG_V-RffF-TkCLB-97" source="79vRmvG_V-RffF-TkCLB-76" target="79vRmvG_V-RffF-TkCLB-77" edge="1">
                    <mxGeometry width="50" height="50" relative="1" as="geometry">
                        <mxPoint x="130" y="510" as="sourcePoint"/>
                        <mxPoint x="135" y="454.5" as="targetPoint"/>
                    </mxGeometry>
                </mxCell>
                <mxCell id="79vRmvG_V-RffF-TkCLB-96" value="&lt;b&gt;&lt;font style=&quot;font-size: 14px&quot; color=&quot;#cc6600&quot;&gt;processing_workflow.sh&lt;/font&gt;&lt;/b&gt;" style="text;html=1;strokeColor=none;fillColor=none;align=center;verticalAlign=middle;whiteSpace=wrap;rounded=0;dashed=1;" parent="79vRmvG_V-RffF-TkCLB-97" vertex="1">
                    <mxGeometry x="310" width="180" height="30" as="geometry"/>
                </mxCell>
                <mxCell id="79vRmvG_V-RffF-TkCLB-55" value="&lt;p style=&quot;margin-top: 0pt ; margin-bottom: 0pt ; margin-left: 0in ; direction: ltr ; unicode-bidi: embed ; word-break: normal&quot;&gt;&lt;font style=&quot;font-size: 11px&quot;&gt;&lt;span style=&quot;font-family: &amp;#34;courier new&amp;#34;&quot;&gt;Demultiplex&amp;nbsp;&lt;/span&gt;&lt;span style=&quot;font-family: &amp;#34;courier new&amp;#34;&quot;&gt;sequences based on barcode sequences (no tool developed yet)&lt;/span&gt;&lt;/font&gt;&lt;/p&gt;" style="rounded=1;whiteSpace=wrap;html=1;fillColor=#f8cecc;strokeColor=#b85450;" parent="1" vertex="1">
                    <mxGeometry x="280" y="90" width="230" height="60" as="geometry"/>
                </mxCell>
                <mxCell id="79vRmvG_V-RffF-TkCLB-82" value="" style="edgeStyle=orthogonalEdgeStyle;rounded=0;orthogonalLoop=1;jettySize=auto;html=1;dashed=1;endArrow=none;endFill=0;" parent="1" source="79vRmvG_V-RffF-TkCLB-56" target="79vRmvG_V-RffF-TkCLB-55" edge="1">
                    <mxGeometry relative="1" as="geometry"/>
                </mxCell>
                <mxCell id="79vRmvG_V-RffF-TkCLB-56" value="&lt;p style=&quot;margin-top: 0pt ; margin-bottom: 0pt ; margin-left: 0in ; direction: ltr ; unicode-bidi: embed ; word-break: normal&quot;&gt;&lt;span style=&quot;font-family: &amp;#34;courier new&amp;#34;&quot;&gt;&lt;font style=&quot;font-size: 11px&quot;&gt;Convert reads to paired-end interleaved reads or single-end read data (no tool developed yet)&lt;/font&gt;&lt;/span&gt;&lt;/p&gt;" style="rounded=1;whiteSpace=wrap;html=1;fillColor=#f8cecc;strokeColor=#b85450;" parent="1" vertex="1">
                    <mxGeometry x="280" y="170" width="230" height="60" as="geometry"/>
                </mxCell>
                <mxCell id="79vRmvG_V-RffF-TkCLB-60" value="" style="endArrow=classic;html=1;exitX=0.5;exitY=1;exitDx=0;exitDy=0;entryX=0.5;entryY=0;entryDx=0;entryDy=0;" parent="1" source="79vRmvG_V-RffF-TkCLB-55" target="79vRmvG_V-RffF-TkCLB-56" edge="1">
                    <mxGeometry width="50" height="50" relative="1" as="geometry">
                        <mxPoint x="530" y="460" as="sourcePoint"/>
                        <mxPoint x="580" y="410" as="targetPoint"/>
                    </mxGeometry>
                </mxCell>
                <mxCell id="79vRmvG_V-RffF-TkCLB-81" value=".fastq" style="shape=note;whiteSpace=wrap;html=1;backgroundOutline=1;darkOpacity=0.05;size=18;" parent="1" vertex="1">
                    <mxGeometry x="150" y="60" width="80" height="40" as="geometry"/>
                </mxCell>
                <mxCell id="79vRmvG_V-RffF-TkCLB-83" value="&lt;p style=&quot;margin-top: 0pt ; margin-bottom: 0pt ; margin-left: 0in ; direction: ltr ; unicode-bidi: embed ; word-break: normal&quot;&gt;&lt;font face=&quot;courier new&quot;&gt;&lt;span style=&quot;font-size: 11px&quot;&gt;Input sequences reads in fastq format&lt;/span&gt;&lt;/font&gt;&lt;/p&gt;" style="rounded=1;whiteSpace=wrap;html=1;fillColor=#f5f5f5;strokeColor=#666666;fontColor=#333333;" parent="1" vertex="1">
                    <mxGeometry x="280" y="10" width="230" height="60" as="geometry"/>
                </mxCell>
                <mxCell id="79vRmvG_V-RffF-TkCLB-84" value="" style="endArrow=classic;html=1;exitX=0.5;exitY=1;exitDx=0;exitDy=0;entryX=0.5;entryY=0;entryDx=0;entryDy=0;" parent="1" source="79vRmvG_V-RffF-TkCLB-83" target="79vRmvG_V-RffF-TkCLB-55" edge="1">
                    <mxGeometry width="50" height="50" relative="1" as="geometry">
                        <mxPoint x="405" y="240" as="sourcePoint"/>
                        <mxPoint x="405" y="340" as="targetPoint"/>
                    </mxGeometry>
                </mxCell>
                <mxCell id="79vRmvG_V-RffF-TkCLB-85" value=".fastq" style="shape=note;whiteSpace=wrap;html=1;backgroundOutline=1;darkOpacity=0.05;size=18;" parent="1" vertex="1">
                    <mxGeometry x="150" y="140" width="80" height="40" as="geometry"/>
                </mxCell>
                <mxCell id="79vRmvG_V-RffF-TkCLB-86" value=".fastq" style="shape=note;whiteSpace=wrap;html=1;backgroundOutline=1;darkOpacity=0.05;size=18;" parent="1" vertex="1">
                    <mxGeometry x="150" y="260" width="80" height="40" as="geometry"/>
                </mxCell>
                <mxCell id="79vRmvG_V-RffF-TkCLB-87" value=".fastq" style="shape=note;whiteSpace=wrap;html=1;backgroundOutline=1;darkOpacity=0.05;size=18;" parent="1" vertex="1">
                    <mxGeometry x="150" y="420" width="80" height="40" as="geometry"/>
                </mxCell>
                <mxCell id="79vRmvG_V-RffF-TkCLB-88" value=".sam" style="shape=note;whiteSpace=wrap;html=1;backgroundOutline=1;darkOpacity=0.05;size=18;" parent="1" vertex="1">
                    <mxGeometry x="150" y="540" width="80" height="40" as="geometry"/>
                </mxCell>
                <mxCell id="79vRmvG_V-RffF-TkCLB-89" value=".bam" style="shape=note;whiteSpace=wrap;html=1;backgroundOutline=1;darkOpacity=0.05;size=18;" parent="1" vertex="1">
                    <mxGeometry x="150" y="620" width="80" height="40" as="geometry"/>
                </mxCell>
                <mxCell id="79vRmvG_V-RffF-TkCLB-90" value=".bam" style="shape=note;whiteSpace=wrap;html=1;backgroundOutline=1;darkOpacity=0.05;size=18;" parent="1" vertex="1">
                    <mxGeometry x="150" y="710" width="80" height="40" as="geometry"/>
                </mxCell>
                <mxCell id="79vRmvG_V-RffF-TkCLB-91" value=".wig&lt;br&gt;.bed&lt;br&gt;_pergene.txt&lt;br&gt;_peressential.txt&lt;br&gt;_pergene_insertions.txt&lt;br&gt;_peressential_insertions.txt" style="shape=note;whiteSpace=wrap;html=1;backgroundOutline=1;darkOpacity=0.05;size=18;" parent="1" vertex="1">
                    <mxGeometry x="115" y="780" width="150" height="110" as="geometry"/>
                </mxCell>
                <mxCell id="p5H-q5bMFWILBEUv3hj6-2" value="" style="edgeStyle=orthogonalEdgeStyle;rounded=0;orthogonalLoop=1;jettySize=auto;html=1;" edge="1" parent="1" source="79vRmvG_V-RffF-TkCLB-98" target="p5H-q5bMFWILBEUv3hj6-1">
                    <mxGeometry relative="1" as="geometry"/>
                </mxCell>
                <mxCell id="p5H-q5bMFWILBEUv3hj6-4" value="" style="edgeStyle=orthogonalEdgeStyle;rounded=0;orthogonalLoop=1;jettySize=auto;html=1;" edge="1" parent="1" source="79vRmvG_V-RffF-TkCLB-98" target="p5H-q5bMFWILBEUv3hj6-3">
                    <mxGeometry relative="1" as="geometry"/>
                </mxCell>
                <mxCell id="79vRmvG_V-RffF-TkCLB-98" value="&lt;p style=&quot;margin-top: 0pt ; margin-bottom: 0pt ; margin-left: 0in ; direction: ltr ; unicode-bidi: embed ; word-break: normal&quot;&gt;&lt;font style=&quot;font-size: 12px&quot;&gt;Transposon mapping throughout the genome (&lt;b&gt;function&lt;/b&gt;)&lt;/font&gt;&lt;/p&gt;" style="rounded=1;whiteSpace=wrap;html=1;fillColor=#d5e8d4;strokeColor=#82b366;" parent="1" vertex="1">
                    <mxGeometry x="280" y="860" width="230" height="60" as="geometry"/>
                </mxCell>
                <mxCell id="79vRmvG_V-RffF-TkCLB-100" value="" style="endArrow=classic;html=1;exitX=0.5;exitY=1;exitDx=0;exitDy=0;" parent="1" source="79vRmvG_V-RffF-TkCLB-77" target="79vRmvG_V-RffF-TkCLB-98" edge="1">
                    <mxGeometry width="50" height="50" relative="1" as="geometry">
                        <mxPoint x="405" y="400" as="sourcePoint"/>
                        <mxPoint x="405" y="500" as="targetPoint"/>
                    </mxGeometry>
                </mxCell>
                <mxCell id="p5H-q5bMFWILBEUv3hj6-1" value="Volcano plots to find significant genes from each libraries" style="ellipse;whiteSpace=wrap;html=1;rounded=1;strokeColor=#82b366;fillColor=#d5e8d4;" vertex="1" parent="1">
                    <mxGeometry x="335" y="990" width="120" height="80" as="geometry"/>
                </mxCell>
                <mxCell id="p5H-q5bMFWILBEUv3hj6-6" value="" style="edgeStyle=orthogonalEdgeStyle;rounded=0;orthogonalLoop=1;jettySize=auto;html=1;" edge="1" parent="1" source="p5H-q5bMFWILBEUv3hj6-3" target="p5H-q5bMFWILBEUv3hj6-5">
                    <mxGeometry relative="1" as="geometry"/>
                </mxCell>
                <mxCell id="p5H-q5bMFWILBEUv3hj6-3" value="Reads profile from every &lt;br&gt;gene from the library(&lt;b&gt;function&lt;/b&gt;)" style="ellipse;whiteSpace=wrap;html=1;rounded=1;strokeColor=#82b366;fillColor=#d5e8d4;" vertex="1" parent="1">
                    <mxGeometry x="620" y="850" width="145" height="80" as="geometry"/>
                </mxCell>
                <mxCell id="p5H-q5bMFWILBEUv3hj6-8" value="" style="edgeStyle=orthogonalEdgeStyle;rounded=0;orthogonalLoop=1;jettySize=auto;html=1;" edge="1" parent="1" source="p5H-q5bMFWILBEUv3hj6-5" target="p5H-q5bMFWILBEUv3hj6-7">
                    <mxGeometry relative="1" as="geometry"/>
                </mxCell>
                <mxCell id="p5H-q5bMFWILBEUv3hj6-5" value="Data normalization to compute fitness differences&amp;nbsp;" style="whiteSpace=wrap;html=1;rounded=1;strokeColor=#82b366;fillColor=#d5e8d4;" vertex="1" parent="1">
                    <mxGeometry x="632.5" y="1020" width="120" height="60" as="geometry"/>
                </mxCell>
                <mxCell id="p5H-q5bMFWILBEUv3hj6-7" value="Classify genetic interactions depending on the fitness based on reads" style="whiteSpace=wrap;html=1;rounded=1;strokeColor=#82b366;fillColor=#d5e8d4;" vertex="1" parent="1">
                    <mxGeometry x="610" y="1160" width="142.5" height="70" as="geometry"/>
                </mxCell>
            </root>
        </mxGraphModel>
    </diagram>
    <diagram id="M6SNC1npqwK7mfPaoPUz" name="CLI-workflow">
        <mxGraphModel dx="596" dy="358" grid="1" gridSize="10" guides="1" tooltips="1" connect="1" arrows="1" fold="1" page="1" pageScale="1" pageWidth="850" pageHeight="1100" math="0" shadow="0">
            <root>
                <mxCell id="6iUlOgVDPDKIj6ZW_35e-0"/>
                <mxCell id="6iUlOgVDPDKIj6ZW_35e-1" parent="6iUlOgVDPDKIj6ZW_35e-0"/>
                <mxCell id="6iUlOgVDPDKIj6ZW_35e-2" value="&lt;h1&gt;Command Line Interface&lt;/h1&gt;" style="text;html=1;strokeColor=none;fillColor=none;spacing=5;spacingTop=-20;whiteSpace=wrap;overflow=hidden;rounded=0;" vertex="1" parent="6iUlOgVDPDKIj6ZW_35e-1">
                    <mxGeometry x="140" y="40" width="320" height="50" as="geometry"/>
                </mxCell>
                <mxCell id="axvAX4zEfeHV4Ye-dF0Y-0" style="edgeStyle=orthogonalEdgeStyle;rounded=0;orthogonalLoop=1;jettySize=auto;html=1;entryX=0;entryY=0.5;entryDx=0;entryDy=0;" edge="1" parent="6iUlOgVDPDKIj6ZW_35e-1" source="6iUlOgVDPDKIj6ZW_35e-4" target="6iUlOgVDPDKIj6ZW_35e-2">
                    <mxGeometry relative="1" as="geometry"/>
                </mxCell>
                <mxCell id="6iUlOgVDPDKIj6ZW_35e-4" value="PIP install&amp;nbsp;" style="rounded=1;whiteSpace=wrap;html=1;" vertex="1" parent="6iUlOgVDPDKIj6ZW_35e-1">
                    <mxGeometry x="70" y="130" width="120" height="60" as="geometry"/>
                </mxCell>
                <mxCell id="axvAX4zEfeHV4Ye-dF0Y-1" style="edgeStyle=orthogonalEdgeStyle;rounded=0;orthogonalLoop=1;jettySize=auto;html=1;entryX=0.75;entryY=1;entryDx=0;entryDy=0;" edge="1" parent="6iUlOgVDPDKIj6ZW_35e-1" source="6iUlOgVDPDKIj6ZW_35e-5" target="6iUlOgVDPDKIj6ZW_35e-2">
                    <mxGeometry relative="1" as="geometry"/>
                </mxCell>
                <mxCell id="6iUlOgVDPDKIj6ZW_35e-5" value="Pipeline usage commands" style="rounded=1;whiteSpace=wrap;html=1;" vertex="1" parent="6iUlOgVDPDKIj6ZW_35e-1">
                    <mxGeometry x="270" y="130" width="120" height="60" as="geometry"/>
                </mxCell>
            </root>
        </mxGraphModel>
    </diagram>
    <diagram id="VnNbFMJMyPEQIucNEA1w" name="Unit-testing-workflow">
        <mxGraphModel dx="596" dy="358" grid="1" gridSize="10" guides="1" tooltips="1" connect="1" arrows="1" fold="1" page="1" pageScale="1" pageWidth="850" pageHeight="1100" math="0" shadow="0">
            <root>
                <mxCell id="gMdzhlxTNjVOVXVY4FQP-0"/>
                <mxCell id="gMdzhlxTNjVOVXVY4FQP-1" parent="gMdzhlxTNjVOVXVY4FQP-0"/>
                <mxCell id="gMdzhlxTNjVOVXVY4FQP-2" value="&lt;h1&gt;Unit testing&lt;/h1&gt;&lt;div&gt;after the bash processing workflow&lt;/div&gt;" style="text;html=1;strokeColor=none;fillColor=none;spacing=5;spacingTop=-20;whiteSpace=wrap;overflow=hidden;rounded=0;" vertex="1" parent="gMdzhlxTNjVOVXVY4FQP-1">
                    <mxGeometry x="210" y="40" width="160" height="80" as="geometry"/>
                </mxCell>
                <mxCell id="IOTqsBAFETl8Onr5errU-1" style="edgeStyle=orthogonalEdgeStyle;rounded=0;orthogonalLoop=1;jettySize=auto;html=1;entryX=0;entryY=0.5;entryDx=0;entryDy=0;" edge="1" parent="gMdzhlxTNjVOVXVY4FQP-1" source="IOTqsBAFETl8Onr5errU-0" target="gMdzhlxTNjVOVXVY4FQP-2">
                    <mxGeometry relative="1" as="geometry"/>
                </mxCell>
                <mxCell id="IOTqsBAFETl8Onr5errU-0" value="Transposon/Reads&lt;br&gt;mapping&lt;br&gt;functions" style="rounded=1;whiteSpace=wrap;html=1;" vertex="1" parent="gMdzhlxTNjVOVXVY4FQP-1">
                    <mxGeometry x="50" y="170" width="120" height="60" as="geometry"/>
                </mxCell>
                <mxCell id="IOTqsBAFETl8Onr5errU-3" style="edgeStyle=orthogonalEdgeStyle;rounded=0;orthogonalLoop=1;jettySize=auto;html=1;entryX=0.5;entryY=1;entryDx=0;entryDy=0;" edge="1" parent="gMdzhlxTNjVOVXVY4FQP-1" source="IOTqsBAFETl8Onr5errU-2" target="gMdzhlxTNjVOVXVY4FQP-2">
                    <mxGeometry relative="1" as="geometry"/>
                </mxCell>
                <mxCell id="IOTqsBAFETl8Onr5errU-2" value="Data Normalization" style="rounded=1;whiteSpace=wrap;html=1;" vertex="1" parent="gMdzhlxTNjVOVXVY4FQP-1">
                    <mxGeometry x="230" y="170" width="120" height="60" as="geometry"/>
                </mxCell>
                <mxCell id="IOTqsBAFETl8Onr5errU-5" style="edgeStyle=orthogonalEdgeStyle;rounded=0;orthogonalLoop=1;jettySize=auto;html=1;entryX=1;entryY=0.5;entryDx=0;entryDy=0;" edge="1" parent="gMdzhlxTNjVOVXVY4FQP-1" source="IOTqsBAFETl8Onr5errU-4" target="gMdzhlxTNjVOVXVY4FQP-2">
                    <mxGeometry relative="1" as="geometry"/>
                </mxCell>
                <mxCell id="IOTqsBAFETl8Onr5errU-4" value="Data stats" style="rounded=1;whiteSpace=wrap;html=1;" vertex="1" parent="gMdzhlxTNjVOVXVY4FQP-1">
                    <mxGeometry x="425" y="170" width="120" height="60" as="geometry"/>
                </mxCell>
            </root>
        </mxGraphModel>
    </diagram>
</mxfile>
=======
<mxfile host="Electron" modified="2021-02-10T17:06:05.506Z" agent="5.0 (Windows NT 10.0; Win64; x64) AppleWebKit/537.36 (KHTML, like Gecko) draw.io/14.1.8 Chrome/87.0.4280.88 Electron/11.1.1 Safari/537.36" etag="UXBXNzCH6czVOgBOWx0m" version="14.1.8" type="device" pages="3"><diagram id="6a731a19-8d31-9384-78a2-239565b7b9f0" name="general pipeline workflow">7V1bc+I4Fv41qdp9gMJX4DEhSc9UdbZ3Otnp6acu2RagibEcWwSYX7+SLF9ky2CIMSSErkpjSZato/OdqySujMli/SUC4fwBe9C/0gfe+sq4vdL1oT2if1nBJikwR3pSMIuQlxRpecEj+geKwoEoXSIPxlJDgrFPUCgXujgIoEukMhBFeCU3m2JffmoIZrBS8OgCv1r6A3lknpSO9GFe/htEs3n6ZM0eJzUOcJ9nEV4G4nlXujHln6R6AdK+xEDjOfDwqlBk3F0ZkwhjknxbrCfQZ6RNyZbcd19Tm713BAPS5IbQ+q33YjkP9z9+/3pz979XY/633RNz9Qr8JUyHwV+WbFICQY/SS1ziiMzxDAfAv8tLbzgRIHvMgF7lbb5iHNJCjRb+DQnZiMkHS4Jp0ZwsfFFbHYoYXYyXkSveYzh+/b54/fLrz9736fS+9/Q8+XrTGwvuIyCaQbJloKJDNpjCEwSlvkC8gCTa0AYR9AFBrzJzAMFjs6xdTmf6RZB6D7Kbl0J241Rk3/raEt1tnw7gJpSob78sGSxvFnR8KOgRRtBr2mIQEvqXk24g6hxMCF7UVvtwSkQlCrJKD0VUliEcJFU+ibKqZYBcKmN7DvJQUgsXDp3ltH6FI6/nRBA8J7UBjhbAz1+ZfpuJ//nApjggyrGxil7MeYP1o+nhutjLYApc+YYJ5QoE2Zv+B66qD3yKQBCHOMYBH30YomDGWGRO+XQ2x0vCLyAT+TCgE0q//Ct9SSftZLoMErqICjrNWd2/C4XJqOSR0uIwLyvBKQcL4/zVHBH4GCYjXFG9JgNjinx/gn0c8XsNz4Ijz6TlMYnwMyzUjHTHsO1tUHqFEYHrrbwvavWRUBRCkY5scb3K1ZJuiLJ5QSWl7VqHizYYNJBTgXfN1DC9cn0Qx8iVaQnXiPzFZFTfElc/CzW3ayG++MVGXBwumIbDqmDaKgp2SqYC9S0F8dOyxgJMPOG/GHFcisk3B5Y0+eagNKnJyMVdRS2/oyOr3FFCmUpHnEGyYR+u2VK2r0pYIYj2FSt/Yt8FAWb84GMSc/OQdYMCJhNjNAvQFNEWJBEskLWYRlQi07kF7pxJV+REgD4irpUfZZb2fWp9wt1yQhYq9dKhTp60IDUMXe/LMz4eV+WGZlpV1tXKrNGaeWO/H/Nmm9Wy07qxzsqoNNqG3ncIPAanMMKUg2EBWJQ/2bgy9R2ltzAE5u0SdZ/gb9OWsn/HYLW1YQmsI8OqglWlZzTtWGBV2cTvCaxWQ7AOzwqsVttgvQUEZO4A+gckwEqUpYsX4ZJwYCJCVWTMXZDpFFJqu1wvggVDS+DEoWxQb4XeOwCcYfSHMuKo1lNALgdmEXTDY2Fu2PbsT7jpPd0II4hQK5y+QkBgBLiI5TMOQ2qsJ15ZwhtzmSUcEHNHk1dGifD/OJxQtpM0zVQYSrpC9o5bYANsWt8fvtvYNSP7tXd/++BDtbFcoiyLMIY1g82CosBJmw9qSFVLF00rw6NCE1tlPI5Gx/I6xypw1FOlONStRG5KvXpSWTKp9EGVVuZY6aAfjVYqm6828jHYL/IR4ICpdg/E8xJ200C5rkLzZGKzAatQu32+d2NZEN5oSHerDfmtfGerXoB/2EBiHIJAOTYeSJyCBfI3SU+ZPUG5wWDy282UV8CVl1zbQuxSk2OXSS9/LKkhRBjfuHPoPjOdBlaMZomlVPVH7q8fn/6YHBh6TMjTUUSSmm6266rQ5w3HzpHQl8YpU/ckC1VV0NhtmNK63Kh+xUwsI+0gLO8C1lOEmHcPPBAS9qwJYzRaxp8LeFyOFJMBMXxZCkdDVPuYAfElA6gwNhWYvLm5XT5vcVCcwtCkNji6KgQoiq++wAvADeTtOK8BdKeZh1PiXJNhnlnGp8P5+BPnneK8pEBFPo8hiI/ojXr00vFV1qMqd6JbgNkNvIljpPsoZaPNX2kzdvEz74Fd5rfxq/Q+yTPZc552ZhKtpplE67wyiZohe6lGiVuaJhIzNtukY+9b+mBkiI9uy93WpBUpr4BNoVnIGsT1b2/YpXCEJS1qol+SHg/NWar5/gK9uZMqlkdhEDLG8NEsWED+Mgrr7wfr5OHuoUaZCHPSpeNOwts+mMUEEA6jEEd8iNwSLD4ntzurT3y8fnjC2I8/tdde1mG2eOV0yqtJHquTtSpv1DuKpXVbpdYH0zvlfrRyR+0tYFGTVeVldGkEZRfnYAQ1ZcbUN2svu1rDHXqJO8ppiMbmTdn6bshm+xo05RdOn3NUgyaNexd4+FvI7ApmEZR5mc7YV+BA+oCbCFLNLdIhA5mluf5k/A5ZUpEWMFWBXOBfi4oF8jy+FKAhD6Y4q0thNVBFb+WloXwHnk5jeBSZMmyQ6Lscx2r8PhVc2TWpmDKNRc9QFj3GkURP+YUNrQvRoytY/dOXOp4vNcEBE5W0vh8DFpYXS/X4wh/EF8w6KAAcKNTtQnRiEi+o7xSbJ44UrXef02yZ3ODTVWrJVTJOvq5/eB7bjyQtU1B/Yt0BLblHbGBHcbPspuG9VKCdyRamYRsx2szVyC2Bn5IhoDYL9pyD9kjbkQdbMtUNsyUXttexCztULS7t1IU9Kl/t3gSkN2VA+8wY0Jb4xtQPZcASJ5vpCr6uGFC1AeTTCDyeEfg71cTrJD+bGHIx1cfJdbq0glOlgUl3AxYO+DTp9jLpTNPsVxeVd2zUfSaxul4FpdzvXAVVvhZKtPoVAwI2/XDzCbO9YGYpFv52DLI2kkwHWknnkJxKFftuy+q8YndZEinlpPJuukNNe9PKJH9HttW43rZyauTjbgFnls5+cDOU54WG6/KF/RVBGEbYhZTPqWCjAvx56uNVP57vlldOrbyi4oHIoJGFj4gQKDYrNE9TqKSgHNJ4SxR8jw3cih03WVarCIWyE9neusr6vYgf3XI4UPU3MyBa3RJxCxdLdiiWD9dX9auhVQZDhy9ZXOgtbSZ0QMSm70paC35eZs7IhWozxxlZpqVWpnvtN6u3ckp5mpMvpUlPcHvf8eFtk7M7SdnU0LFOdgbE1ve+JFn+7jam5Sm7NDjDk3UhoDTzepAHcPjebR+CV06YtB1fysgsLR+KdqzmKl2Lf1571M5HomonT7mlHb/fkPzbxKnikI6t8utM/EZTK7t7hx7LVeLIyvleR/YaR9UVSP0piMlLhQvjOQgh17Kkzk0q8GR+COq3JfERU8xCd0fP3+hdbJk1Y74B475ELt5qoyNCv+SfW1Xgq3yrcqavPVOq/lCmD6uPT5wJCflJk0VXREqBCK5n2wIWbKPAeXkhFvun0pk2/wgqFMqTTxe69HTuSJPlKh9Xd44Up9G9zRXpRndmx+bUrbBuvF6y1FHT9ZKt6c5qfOwidKemSLd0qzyrzuxFEP70Vks1l3wRhDcVsfhuCV/NLyarej802VV53W7JXt3zlayU+dBkt0/N7alevyyyDxXnPHRLdkUsYIVmWRY5Sl2bPvcCy6W/QhixMyb7ZE3UtTCOKQkR8OubsA5+oSBm2VkcxA36qrT+IEyScsWwyhXHOwhYHaNsw886cBfrIf7Zjvx8R/mf1o8VrtnM1ZY3lR1Gma1dPM7us/LPWaS73o57kkfVVTu/ja8CZpew8dU+0cbXk0mD8zoLqPxjINqhW1YrHZW33R8cgqGX+U+gJc3zn5kz7v4P</diagram><diagram id="M6SNC1npqwK7mfPaoPUz" name="CLI-workflow">1VZdc5swEPw1PDoDxmC/1sZJPE2nnnGbxHnpqOgMSoXECGFDfn0lEAaC604/4mlfbN3qdBK7twjLXSTFjUBp/IFjoNbYxoXlBtZ4PPVn6lcDZQ1MZuMaiATBNeS0wIa8gAFtg+YEQ9ZLlJxTSdI+GHLGIJQ9DAnBD/20Haf9XVMUwQDYhIgO0QeCZVyjM89u8VsgUdzs7NhmJkFNsgGyGGF+6EDu0nIXgnNZj5JiAVRz1/Dik8/0Y3QfrIP3q2f/6eGL68GoLnb9K0uOjyCAyb9b2mi5RzQ3fFljn6pN5rHa1Y/0aMGTBDGs0u4IA/W3YhLEDoXQ5KpN23RDliwbBSQUVUGZUAU4aphJwb/BglMuFMK4qurOd4TSV1CWopCwSAFeG33iqQJGSgJ3foiJhE2qj+IGB9W/CuN7dThaCRUTjIEpTPCcYdBE2McT/pROQ7sqp56g00yG3hvgCUhRqpRmdmI6pbGKCQ9t37lNM8Wdnmt6EZlWj46VWznVwCh6Wl1U7N89Tl6WO7i9n2xhhK/t7cgeaAFYmcOEXMiYR5whumzRV1S1OXe84l3L9wxSlsbpKJe8L64iVZSPZn0VbHVw5TVhUHQng/K3VMl4LkI4kzcx7xokIjhXzzhAE3NWYwEUSbLvv1X+RLFzp+74cb1a60Usk0gv91Gim5x9zdJTXmvVc35gj45Sb+WDad8Gjjv0gXPKB/5b+cAZ8HRRH1xNva4VnMsawfsvjeANjUBSoPUFlGf60tffDNXNlP2bNrikD1TYfohUc52vOXf5HQ==</diagram><diagram id="VnNbFMJMyPEQIucNEA1w" name="Unit-testing-workflow">1VfbUtswEP2aPNLxJQ55bS7QzhTSNiGFR2FtbIGsdSXlxtdXSuTIJkCnHSDhxaM9u9q19uyRk1bcL1bnkpT5BVLgrSigq1Y8aEXRaadrnhZYb4F2N9oCmWR0C4UeGLMHcGDg0DmjoBqBGpFrVjbBFIWAVDcwIiUum2Ez5M2qJclgDxinhO+jvxjV+RbtJoHHvwDL8qpyGDhPQapgB6icUFzWoHjYivsSUW9XxaoP3Pau6kt2QR9yvppc3k1H0+vpTfvsx/eTbbKzf9myO4IEoV83teNyQfjc9asVdbgp0stN1U5mV1eCacsaKM1EVvlNIR9SgZQtKojMNEi7LQfzvCUqt0eQmIJSmzTBEuX9jJuO+oy1/a7nel0RqWG1eS9dcAOEZqm0xHvoI0dpEIHCRPZmjPNHkCpJakvGg8RbEywNcGKYjHvLnGkYG9yWWhoZGAwXIDdvFw9yRikIg0mcCwq2n8HuDf/KimPPpDMnqM2kY+kcsAAt1ybEeXfSqRTnzKUf37DjsLw2ul2HEaeYbJfZT4VZuMF4eki+jia/Ve/z2XDCuyMhE5DyqjpBjQugRmPORKlzzFAQPvToo1b5mG+46bul7w60XrsLg8w1Nsk1TZXra7d/Y9xY41NSmYNV3TlY/xcrCucyhRfO7nqqiczgpXxOSLYxL3IsgRPNFs3L6dUZC/ZkPZFEqBIVCpPwJxCqKtndykpyBSnLmsK9YzYXqWYo1N4geJrDZ3RUo/StBJM09RKePiGY6AnBdN5KMPFhBeM1clP3vY9gog8pmP3v4IBoYpBLlAXh7IHY+T/O8Y/iY5v/5KDzHx70g9H+kPPffm7+lSb6SK/9dpS829wb0//Q3/hq/5bi4R8=</diagram></mxfile>
>>>>>>> a59ece1fc3a0eac1a18fa89f3764651b56de983c
